<mxfile host="app.diagrams.net" agent="Mozilla/5.0 (Windows NT 10.0; Win64; x64) AppleWebKit/537.36 (KHTML, like Gecko) Chrome/131.0.0.0 Safari/537.36" version="26.2.10">
  <diagram name="Page-1" id="e7e014a7-5840-1c2e-5031-d8a46d1fe8dd">
    <mxGraphModel dx="791" dy="564" grid="1" gridSize="10" guides="1" tooltips="1" connect="1" arrows="1" fold="1" page="1" pageScale="1" pageWidth="1169" pageHeight="826" background="none" math="0" shadow="0">
      <root>
        <mxCell id="0" />
        <mxCell id="1" parent="0" />
        <mxCell id="2" value="Masyarakat" style="swimlane;whiteSpace=wrap" parent="1" vertex="1">
          <mxGeometry x="164.5" y="128" width="280" height="752" as="geometry" />
        </mxCell>
        <mxCell id="5" value="" style="ellipse;shape=startState;fillColor=#FFFFFF;strokeColor=#000000;" parent="2" vertex="1">
          <mxGeometry x="100" y="40" width="30" height="30" as="geometry" />
        </mxCell>
        <mxCell id="6" value="" style="edgeStyle=elbowEdgeStyle;elbow=horizontal;verticalAlign=bottom;endArrow=classic;endSize=8;endFill=1;rounded=0" parent="2" source="5" target="7" edge="1">
          <mxGeometry x="100" y="40" as="geometry">
            <mxPoint x="115" y="110" as="targetPoint" />
          </mxGeometry>
        </mxCell>
        <mxCell id="R2GfxWQcYLMH55uAo2qZ-48" style="edgeStyle=orthogonalEdgeStyle;rounded=0;orthogonalLoop=1;jettySize=auto;html=1;exitX=0.5;exitY=1;exitDx=0;exitDy=0;entryX=0.5;entryY=0;entryDx=0;entryDy=0;" edge="1" parent="2" source="7" target="R2GfxWQcYLMH55uAo2qZ-47">
          <mxGeometry relative="1" as="geometry" />
        </mxCell>
        <mxCell id="7" value="Membuka Website" style="fontSize=9;" parent="2" vertex="1">
          <mxGeometry x="60" y="110" width="110" height="50" as="geometry" />
        </mxCell>
        <mxCell id="11" value="" style="endArrow=open;strokeColor=#FF0000;endFill=1;rounded=0" parent="2" target="10" edge="1">
          <mxGeometry relative="1" as="geometry">
            <mxPoint x="131.07142857142844" y="432" as="sourcePoint" />
          </mxGeometry>
        </mxCell>
        <mxCell id="R2GfxWQcYLMH55uAo2qZ-47" value="membuka tab&#xa;laporan pengaduan" style="fontSize=9;" vertex="1" parent="2">
          <mxGeometry x="60" y="192" width="110" height="50" as="geometry" />
        </mxCell>
        <mxCell id="R2GfxWQcYLMH55uAo2qZ-76" value="user&#xa;melakukan&#xa;input login" style="fontSize=9;" vertex="1" parent="2">
          <mxGeometry x="60" y="392" width="110" height="50" as="geometry" />
        </mxCell>
        <mxCell id="R2GfxWQcYLMH55uAo2qZ-93" value="user melakukan input&#xa;registrasi" style="fontSize=8;" vertex="1" parent="2">
          <mxGeometry x="70.8" y="279.5" width="84.7" height="38.5" as="geometry" />
        </mxCell>
        <mxCell id="3" value="sistem" style="swimlane;whiteSpace=wrap;spacing=3;fontSize=14;" parent="1" vertex="1">
          <mxGeometry x="445" y="130" width="345" height="750" as="geometry" />
        </mxCell>
        <mxCell id="24" value="" style="endArrow=open;strokeColor=#FF0000;endFill=1;rounded=0" parent="3" target="21" edge="1">
          <mxGeometry relative="1" as="geometry">
            <mxPoint x="130" y="245" as="sourcePoint" />
          </mxGeometry>
        </mxCell>
        <mxCell id="26" value="" style="edgeStyle=elbowEdgeStyle;elbow=horizontal;verticalAlign=bottom;endArrow=open;endSize=8;strokeColor=#FF0000;endFill=1;rounded=0" parent="3" source="25" edge="1">
          <mxGeometry x="130" y="90" as="geometry">
            <mxPoint x="130" y="135" as="targetPoint" />
          </mxGeometry>
        </mxCell>
        <mxCell id="R2GfxWQcYLMH55uAo2qZ-45" value="Menampilkan&#xa;Homepage" style="fontSize=9;" vertex="1" parent="3">
          <mxGeometry x="125.5" y="60" width="110" height="50" as="geometry" />
        </mxCell>
        <mxCell id="R2GfxWQcYLMH55uAo2qZ-53" style="edgeStyle=orthogonalEdgeStyle;rounded=0;orthogonalLoop=1;jettySize=auto;html=1;entryX=0.5;entryY=0;entryDx=0;entryDy=0;" edge="1" parent="3" source="R2GfxWQcYLMH55uAo2qZ-50" target="R2GfxWQcYLMH55uAo2qZ-52">
          <mxGeometry relative="1" as="geometry" />
        </mxCell>
        <mxCell id="R2GfxWQcYLMH55uAo2qZ-50" value="melakukan&#xa;pengecekan" style="fontSize=9;" vertex="1" parent="3">
          <mxGeometry x="125.5" y="130" width="110" height="50" as="geometry" />
        </mxCell>
        <mxCell id="R2GfxWQcYLMH55uAo2qZ-67" style="edgeStyle=orthogonalEdgeStyle;rounded=0;orthogonalLoop=1;jettySize=auto;html=1;exitX=0;exitY=0.5;exitDx=0;exitDy=0;" edge="1" parent="3" source="R2GfxWQcYLMH55uAo2qZ-52" target="R2GfxWQcYLMH55uAo2qZ-66">
          <mxGeometry relative="1" as="geometry">
            <Array as="points">
              <mxPoint x="140" y="210" />
            </Array>
          </mxGeometry>
        </mxCell>
        <mxCell id="R2GfxWQcYLMH55uAo2qZ-115" style="edgeStyle=orthogonalEdgeStyle;rounded=0;orthogonalLoop=1;jettySize=auto;html=1;" edge="1" parent="3" source="R2GfxWQcYLMH55uAo2qZ-52" target="R2GfxWQcYLMH55uAo2qZ-68">
          <mxGeometry relative="1" as="geometry">
            <Array as="points">
              <mxPoint x="325" y="243" />
              <mxPoint x="325" y="460" />
              <mxPoint x="104" y="460" />
            </Array>
          </mxGeometry>
        </mxCell>
        <mxCell id="R2GfxWQcYLMH55uAo2qZ-52" value="&lt;font&gt;apakah user&lt;/font&gt;&lt;div&gt;&lt;font&gt;sudah login?&lt;/font&gt;&lt;/div&gt;" style="rhombus;whiteSpace=wrap;html=1;fontSize=9;" vertex="1" parent="3">
          <mxGeometry x="140.5" y="203" width="80" height="80" as="geometry" />
        </mxCell>
        <mxCell id="R2GfxWQcYLMH55uAo2qZ-57" value="y" style="text;html=1;align=center;verticalAlign=middle;resizable=0;points=[];autosize=1;strokeColor=none;fillColor=none;" vertex="1" parent="3">
          <mxGeometry x="205.5" y="195" width="30" height="30" as="geometry" />
        </mxCell>
        <mxCell id="R2GfxWQcYLMH55uAo2qZ-60" value="n" style="text;html=1;align=center;verticalAlign=middle;resizable=0;points=[];autosize=1;strokeColor=none;fillColor=none;" vertex="1" parent="3">
          <mxGeometry x="132.2" y="203" width="30" height="30" as="geometry" />
        </mxCell>
        <mxCell id="R2GfxWQcYLMH55uAo2qZ-99" style="edgeStyle=orthogonalEdgeStyle;rounded=0;orthogonalLoop=1;jettySize=auto;html=1;entryX=0.5;entryY=0;entryDx=0;entryDy=0;" edge="1" parent="3" source="R2GfxWQcYLMH55uAo2qZ-66" target="R2GfxWQcYLMH55uAo2qZ-91">
          <mxGeometry relative="1" as="geometry" />
        </mxCell>
        <mxCell id="R2GfxWQcYLMH55uAo2qZ-100" style="edgeStyle=orthogonalEdgeStyle;rounded=0;orthogonalLoop=1;jettySize=auto;html=1;entryX=0.5;entryY=0;entryDx=0;entryDy=0;exitX=1;exitY=0.5;exitDx=0;exitDy=0;" edge="1" parent="3" source="R2GfxWQcYLMH55uAo2qZ-66" target="R2GfxWQcYLMH55uAo2qZ-73">
          <mxGeometry relative="1" as="geometry">
            <Array as="points">
              <mxPoint x="95" y="240" />
              <mxPoint x="128" y="240" />
            </Array>
          </mxGeometry>
        </mxCell>
        <mxCell id="R2GfxWQcYLMH55uAo2qZ-66" value="apakah&lt;div&gt;mempunyai&lt;/div&gt;&lt;div&gt;akun?&lt;/div&gt;" style="rhombus;whiteSpace=wrap;html=1;fontSize=9;" vertex="1" parent="3">
          <mxGeometry x="15" y="170" width="80" height="80" as="geometry" />
        </mxCell>
        <mxCell id="R2GfxWQcYLMH55uAo2qZ-68" value="menampilkan&#xa;tab laporanÂ &#xa;pengaduan" style="fontSize=8;" vertex="1" parent="3">
          <mxGeometry x="71.5" y="485" width="66" height="30" as="geometry" />
        </mxCell>
        <mxCell id="R2GfxWQcYLMH55uAo2qZ-72" value="n" style="text;html=1;align=center;verticalAlign=middle;resizable=0;points=[];autosize=1;strokeColor=none;fillColor=none;" vertex="1" parent="3">
          <mxGeometry x="29.25" y="240" width="30" height="30" as="geometry" />
        </mxCell>
        <mxCell id="R2GfxWQcYLMH55uAo2qZ-73" value="menampilkan&#xa;halaman login" style="fontSize=9;" vertex="1" parent="3">
          <mxGeometry x="95" y="283" width="66" height="30" as="geometry" />
        </mxCell>
        <mxCell id="R2GfxWQcYLMH55uAo2qZ-71" value="y" style="text;html=1;align=center;verticalAlign=middle;resizable=0;points=[];autosize=1;strokeColor=none;fillColor=none;" vertex="1" parent="3">
          <mxGeometry x="85.5" y="180" width="30" height="30" as="geometry" />
        </mxCell>
        <mxCell id="R2GfxWQcYLMH55uAo2qZ-83" style="edgeStyle=orthogonalEdgeStyle;rounded=0;orthogonalLoop=1;jettySize=auto;html=1;entryX=0;entryY=0.5;entryDx=0;entryDy=0;" edge="1" parent="3" source="R2GfxWQcYLMH55uAo2qZ-79" target="R2GfxWQcYLMH55uAo2qZ-81">
          <mxGeometry relative="1" as="geometry">
            <Array as="points">
              <mxPoint x="75" y="550" />
              <mxPoint x="208" y="550" />
            </Array>
          </mxGeometry>
        </mxCell>
        <mxCell id="R2GfxWQcYLMH55uAo2qZ-79" value="pengecekan input login" style="fontSize=9;" vertex="1" parent="3">
          <mxGeometry x="29.249999999999996" y="570" width="105.6" height="48" as="geometry" />
        </mxCell>
        <mxCell id="R2GfxWQcYLMH55uAo2qZ-113" style="edgeStyle=orthogonalEdgeStyle;rounded=0;orthogonalLoop=1;jettySize=auto;html=1;entryX=0.5;entryY=0;entryDx=0;entryDy=0;" edge="1" parent="3" source="R2GfxWQcYLMH55uAo2qZ-81" target="R2GfxWQcYLMH55uAo2qZ-89">
          <mxGeometry relative="1" as="geometry" />
        </mxCell>
        <mxCell id="R2GfxWQcYLMH55uAo2qZ-114" style="edgeStyle=orthogonalEdgeStyle;rounded=0;orthogonalLoop=1;jettySize=auto;html=1;entryX=1;entryY=0.5;entryDx=0;entryDy=0;" edge="1" parent="3" source="R2GfxWQcYLMH55uAo2qZ-81" target="R2GfxWQcYLMH55uAo2qZ-68">
          <mxGeometry relative="1" as="geometry" />
        </mxCell>
        <mxCell id="R2GfxWQcYLMH55uAo2qZ-81" value="apakah&lt;div&gt;input user benar?&lt;/div&gt;" style="rhombus;whiteSpace=wrap;html=1;fontSize=8;" vertex="1" parent="3">
          <mxGeometry x="207.8" y="470" width="60" height="60" as="geometry" />
        </mxCell>
        <mxCell id="R2GfxWQcYLMH55uAo2qZ-84" value="n" style="text;html=1;align=center;verticalAlign=middle;resizable=0;points=[];autosize=1;strokeColor=none;fillColor=none;" vertex="1" parent="3">
          <mxGeometry x="235.5" y="515" width="30" height="30" as="geometry" />
        </mxCell>
        <mxCell id="R2GfxWQcYLMH55uAo2qZ-85" value="y" style="text;html=1;align=center;verticalAlign=middle;resizable=0;points=[];autosize=1;strokeColor=none;fillColor=none;" vertex="1" parent="3">
          <mxGeometry x="190.5" y="470" width="30" height="30" as="geometry" />
        </mxCell>
        <mxCell id="R2GfxWQcYLMH55uAo2qZ-125" style="edgeStyle=orthogonalEdgeStyle;rounded=0;orthogonalLoop=1;jettySize=auto;html=1;entryX=0.5;entryY=0;entryDx=0;entryDy=0;" edge="1" parent="3" source="R2GfxWQcYLMH55uAo2qZ-89" target="R2GfxWQcYLMH55uAo2qZ-45">
          <mxGeometry relative="1" as="geometry">
            <Array as="points">
              <mxPoint x="335" y="594" />
              <mxPoint x="335" y="40" />
              <mxPoint x="180" y="40" />
            </Array>
          </mxGeometry>
        </mxCell>
        <mxCell id="R2GfxWQcYLMH55uAo2qZ-89" value="menampilkan peringatan&#xa;dan menyarankan resetÂ &#xa;password, 3 kali salah&#xa;kembali ke homepage" style="fontSize=9;" vertex="1" parent="3">
          <mxGeometry x="162.2" y="570" width="105.6" height="48" as="geometry" />
        </mxCell>
        <mxCell id="R2GfxWQcYLMH55uAo2qZ-91" value="menampilkan&#xa;halaman&#xa;registrasi" style="fontSize=8;" vertex="1" parent="3">
          <mxGeometry x="25" y="283" width="60.5" height="27.5" as="geometry" />
        </mxCell>
        <mxCell id="R2GfxWQcYLMH55uAo2qZ-109" style="edgeStyle=orthogonalEdgeStyle;rounded=0;orthogonalLoop=1;jettySize=auto;html=1;entryX=0;entryY=0.5;entryDx=0;entryDy=0;" edge="1" parent="3" source="R2GfxWQcYLMH55uAo2qZ-97" target="R2GfxWQcYLMH55uAo2qZ-108">
          <mxGeometry relative="1" as="geometry" />
        </mxCell>
        <mxCell id="R2GfxWQcYLMH55uAo2qZ-97" value="pengecekan input&#xa;registrasi" style="fontSize=9;" vertex="1" parent="3">
          <mxGeometry x="27.5" y="350" width="88" height="40" as="geometry" />
        </mxCell>
        <mxCell id="R2GfxWQcYLMH55uAo2qZ-118" style="edgeStyle=orthogonalEdgeStyle;rounded=0;orthogonalLoop=1;jettySize=auto;html=1;entryX=0.5;entryY=0;entryDx=0;entryDy=0;" edge="1" parent="3" source="R2GfxWQcYLMH55uAo2qZ-108" target="R2GfxWQcYLMH55uAo2qZ-117">
          <mxGeometry relative="1" as="geometry" />
        </mxCell>
        <mxCell id="R2GfxWQcYLMH55uAo2qZ-126" style="edgeStyle=orthogonalEdgeStyle;rounded=0;orthogonalLoop=1;jettySize=auto;html=1;entryX=0;entryY=0.5;entryDx=0;entryDy=0;" edge="1" parent="3" source="R2GfxWQcYLMH55uAo2qZ-108" target="R2GfxWQcYLMH55uAo2qZ-122">
          <mxGeometry relative="1" as="geometry" />
        </mxCell>
        <mxCell id="R2GfxWQcYLMH55uAo2qZ-108" value="apakah&lt;div&gt;input user&lt;/div&gt;&lt;div&gt;benar?&lt;/div&gt;" style="rhombus;whiteSpace=wrap;html=1;fontSize=8;" vertex="1" parent="3">
          <mxGeometry x="154" y="340" width="60" height="60" as="geometry" />
        </mxCell>
        <mxCell id="R2GfxWQcYLMH55uAo2qZ-123" style="edgeStyle=orthogonalEdgeStyle;rounded=0;orthogonalLoop=1;jettySize=auto;html=1;entryX=0;entryY=0.5;entryDx=0;entryDy=0;" edge="1" parent="3" source="R2GfxWQcYLMH55uAo2qZ-117" target="R2GfxWQcYLMH55uAo2qZ-68">
          <mxGeometry relative="1" as="geometry" />
        </mxCell>
        <mxCell id="R2GfxWQcYLMH55uAo2qZ-117" value="menampilkan&#xa;sukses dan&#xa;menampilkan halaman&#xa;laporan pengaduan" style="fontSize=8;" vertex="1" parent="3">
          <mxGeometry x="140" y="410" width="88" height="40" as="geometry" />
        </mxCell>
        <mxCell id="R2GfxWQcYLMH55uAo2qZ-120" value="y" style="text;html=1;align=center;verticalAlign=middle;resizable=0;points=[];autosize=1;strokeColor=none;fillColor=none;" vertex="1" parent="3">
          <mxGeometry x="154" y="380" width="30" height="30" as="geometry" />
        </mxCell>
        <mxCell id="R2GfxWQcYLMH55uAo2qZ-124" style="edgeStyle=orthogonalEdgeStyle;rounded=0;orthogonalLoop=1;jettySize=auto;html=1;entryX=1;entryY=0.5;entryDx=0;entryDy=0;" edge="1" parent="3" source="R2GfxWQcYLMH55uAo2qZ-122" target="R2GfxWQcYLMH55uAo2qZ-45">
          <mxGeometry relative="1" as="geometry">
            <Array as="points">
              <mxPoint x="252" y="204" />
              <mxPoint x="252" y="85" />
            </Array>
          </mxGeometry>
        </mxCell>
        <mxCell id="R2GfxWQcYLMH55uAo2qZ-122" value="menampilkan&#xa;peringatan&#xa;3 kali salah tampilkan&#xa;homepage" style="fontSize=7;" vertex="1" parent="3">
          <mxGeometry x="214" y="298.75" width="77" height="35" as="geometry" />
        </mxCell>
        <mxCell id="R2GfxWQcYLMH55uAo2qZ-127" value="n" style="text;html=1;align=center;verticalAlign=middle;resizable=0;points=[];autosize=1;strokeColor=none;fillColor=none;" vertex="1" parent="3">
          <mxGeometry x="175.5" y="320" width="30" height="30" as="geometry" />
        </mxCell>
        <mxCell id="R2GfxWQcYLMH55uAo2qZ-94" style="edgeStyle=orthogonalEdgeStyle;rounded=0;orthogonalLoop=1;jettySize=auto;html=1;entryX=1;entryY=0.5;entryDx=0;entryDy=0;" edge="1" parent="1" source="R2GfxWQcYLMH55uAo2qZ-91" target="R2GfxWQcYLMH55uAo2qZ-93">
          <mxGeometry relative="1" as="geometry" />
        </mxCell>
        <mxCell id="R2GfxWQcYLMH55uAo2qZ-46" style="edgeStyle=orthogonalEdgeStyle;rounded=0;orthogonalLoop=1;jettySize=auto;html=1;entryX=0;entryY=0.5;entryDx=0;entryDy=0;" edge="1" parent="1" source="7" target="R2GfxWQcYLMH55uAo2qZ-45">
          <mxGeometry relative="1" as="geometry">
            <mxPoint x="570" y="263" as="targetPoint" />
            <Array as="points">
              <mxPoint x="340" y="263" />
              <mxPoint x="340" y="215" />
            </Array>
          </mxGeometry>
        </mxCell>
        <mxCell id="R2GfxWQcYLMH55uAo2qZ-98" style="edgeStyle=orthogonalEdgeStyle;rounded=0;orthogonalLoop=1;jettySize=auto;html=1;entryX=0;entryY=0.5;entryDx=0;entryDy=0;" edge="1" parent="1" source="R2GfxWQcYLMH55uAo2qZ-47" target="R2GfxWQcYLMH55uAo2qZ-50">
          <mxGeometry relative="1" as="geometry">
            <Array as="points">
              <mxPoint x="340" y="345" />
              <mxPoint x="340" y="285" />
            </Array>
          </mxGeometry>
        </mxCell>
        <mxCell id="R2GfxWQcYLMH55uAo2qZ-104" style="edgeStyle=orthogonalEdgeStyle;rounded=0;orthogonalLoop=1;jettySize=auto;html=1;entryX=0;entryY=0.5;entryDx=0;entryDy=0;" edge="1" parent="1" source="R2GfxWQcYLMH55uAo2qZ-76" target="R2GfxWQcYLMH55uAo2qZ-79">
          <mxGeometry relative="1" as="geometry" />
        </mxCell>
        <mxCell id="R2GfxWQcYLMH55uAo2qZ-107" style="edgeStyle=orthogonalEdgeStyle;rounded=0;orthogonalLoop=1;jettySize=auto;html=1;entryX=0;entryY=0.5;entryDx=0;entryDy=0;" edge="1" parent="1" source="R2GfxWQcYLMH55uAo2qZ-93" target="R2GfxWQcYLMH55uAo2qZ-97">
          <mxGeometry relative="1" as="geometry">
            <Array as="points">
              <mxPoint x="280" y="500" />
            </Array>
          </mxGeometry>
        </mxCell>
        <mxCell id="R2GfxWQcYLMH55uAo2qZ-116" style="edgeStyle=orthogonalEdgeStyle;rounded=0;orthogonalLoop=1;jettySize=auto;html=1;exitX=0;exitY=0.5;exitDx=0;exitDy=0;entryX=1;entryY=0.5;entryDx=0;entryDy=0;" edge="1" parent="1" source="R2GfxWQcYLMH55uAo2qZ-73" target="R2GfxWQcYLMH55uAo2qZ-76">
          <mxGeometry relative="1" as="geometry">
            <mxPoint x="530.5" y="445" as="sourcePoint" />
            <mxPoint x="370" y="550" as="targetPoint" />
            <Array as="points">
              <mxPoint x="531" y="450" />
              <mxPoint x="531" y="475" />
              <mxPoint x="390" y="475" />
              <mxPoint x="390" y="545" />
            </Array>
          </mxGeometry>
        </mxCell>
      </root>
    </mxGraphModel>
  </diagram>
</mxfile>
